<mxfile host="app.diagrams.net" modified="2024-03-22T20:58:33.431Z" agent="Mozilla/5.0 (Windows NT 10.0; Win64; x64; rv:124.0) Gecko/20100101 Firefox/124.0" etag="RxAxd0AjtRRiajCRgRZX" version="24.0.7" type="github">
  <diagram name="Seite-1" id="1NNdOXro35Tv1AhK0h71">
    <mxGraphModel dx="2049" dy="1876" grid="1" gridSize="10" guides="1" tooltips="1" connect="1" arrows="1" fold="1" page="1" pageScale="1" pageWidth="1169" pageHeight="827" math="0" shadow="0">
      <root>
        <mxCell id="0" />
        <mxCell id="1" parent="0" />
        <mxCell id="XnYZWJbcaLXLvjj-krjO-1" value="" style="ellipse;whiteSpace=wrap;html=1;aspect=fixed;strokeWidth=2;" vertex="1" parent="1">
          <mxGeometry x="90" y="210" width="80" height="80" as="geometry" />
        </mxCell>
        <mxCell id="XnYZWJbcaLXLvjj-krjO-2" value="" style="ellipse;whiteSpace=wrap;html=1;aspect=fixed;strokeWidth=2;" vertex="1" parent="1">
          <mxGeometry x="890" width="80" height="80" as="geometry" />
        </mxCell>
        <mxCell id="XnYZWJbcaLXLvjj-krjO-3" value="" style="ellipse;whiteSpace=wrap;html=1;aspect=fixed;strokeWidth=2;" vertex="1" parent="1">
          <mxGeometry x="330" y="210" width="80" height="80" as="geometry" />
        </mxCell>
        <mxCell id="XnYZWJbcaLXLvjj-krjO-5" value="" style="ellipse;whiteSpace=wrap;html=1;aspect=fixed;strokeWidth=2;" vertex="1" parent="1">
          <mxGeometry x="570" y="210" width="80" height="80" as="geometry" />
        </mxCell>
        <mxCell id="XnYZWJbcaLXLvjj-krjO-6" value="φ" style="rounded=0;whiteSpace=wrap;html=1;fontSize=40;strokeWidth=2;" vertex="1" parent="1">
          <mxGeometry x="210" y="210" width="80" height="80" as="geometry" />
        </mxCell>
        <mxCell id="XnYZWJbcaLXLvjj-krjO-7" value="A" style="rounded=0;whiteSpace=wrap;html=1;fontSize=44;strokeWidth=2;" vertex="1" parent="1">
          <mxGeometry x="450" y="210" width="80" height="80" as="geometry" />
        </mxCell>
        <mxCell id="XnYZWJbcaLXLvjj-krjO-8" value="B" style="rounded=0;whiteSpace=wrap;html=1;fontSize=44;strokeWidth=2;" vertex="1" parent="1">
          <mxGeometry x="680" y="80" width="80" height="80" as="geometry" />
        </mxCell>
        <mxCell id="XnYZWJbcaLXLvjj-krjO-9" value="E" style="rounded=0;whiteSpace=wrap;html=1;fontSize=44;strokeWidth=2;" vertex="1" parent="1">
          <mxGeometry x="1040" y="208.32" width="80" height="80" as="geometry" />
        </mxCell>
        <mxCell id="XnYZWJbcaLXLvjj-krjO-10" value="" style="endArrow=classic;html=1;rounded=0;curved=1;exitX=1;exitY=0.5;exitDx=0;exitDy=0;strokeWidth=2;" edge="1" parent="1" source="XnYZWJbcaLXLvjj-krjO-6">
          <mxGeometry width="50" height="50" relative="1" as="geometry">
            <mxPoint x="350" y="300" as="sourcePoint" />
            <mxPoint x="330" y="250" as="targetPoint" />
          </mxGeometry>
        </mxCell>
        <mxCell id="XnYZWJbcaLXLvjj-krjO-11" value="" style="endArrow=classic;html=1;rounded=0;curved=1;entryX=0;entryY=0.5;entryDx=0;entryDy=0;exitX=1;exitY=0.5;exitDx=0;exitDy=0;strokeWidth=2;" edge="1" parent="1" source="XnYZWJbcaLXLvjj-krjO-3" target="XnYZWJbcaLXLvjj-krjO-7">
          <mxGeometry width="50" height="50" relative="1" as="geometry">
            <mxPoint x="350" y="300" as="sourcePoint" />
            <mxPoint x="400" y="250" as="targetPoint" />
          </mxGeometry>
        </mxCell>
        <mxCell id="XnYZWJbcaLXLvjj-krjO-12" value="" style="endArrow=classic;html=1;rounded=0;curved=1;exitX=1;exitY=0.5;exitDx=0;exitDy=0;entryX=0;entryY=0.5;entryDx=0;entryDy=0;strokeWidth=2;" edge="1" parent="1" source="XnYZWJbcaLXLvjj-krjO-7" target="XnYZWJbcaLXLvjj-krjO-5">
          <mxGeometry width="50" height="50" relative="1" as="geometry">
            <mxPoint x="600" y="280" as="sourcePoint" />
            <mxPoint x="650" y="230" as="targetPoint" />
          </mxGeometry>
        </mxCell>
        <mxCell id="XnYZWJbcaLXLvjj-krjO-13" value="" style="endArrow=classic;html=1;rounded=0;curved=1;exitX=1;exitY=0;exitDx=0;exitDy=0;entryX=0;entryY=0.5;entryDx=0;entryDy=0;strokeWidth=2;" edge="1" parent="1" source="XnYZWJbcaLXLvjj-krjO-5" target="XnYZWJbcaLXLvjj-krjO-8">
          <mxGeometry width="50" height="50" relative="1" as="geometry">
            <mxPoint x="600" y="250" as="sourcePoint" />
            <mxPoint x="650" y="250" as="targetPoint" />
          </mxGeometry>
        </mxCell>
        <mxCell id="XnYZWJbcaLXLvjj-krjO-14" value="" style="endArrow=classic;html=1;rounded=0;curved=1;exitX=1;exitY=0.5;exitDx=0;exitDy=0;entryX=0;entryY=0.5;entryDx=0;entryDy=0;strokeWidth=2;" edge="1" parent="1" source="XnYZWJbcaLXLvjj-krjO-8" target="XnYZWJbcaLXLvjj-krjO-2">
          <mxGeometry width="50" height="50" relative="1" as="geometry">
            <mxPoint x="620" y="320" as="sourcePoint" />
            <mxPoint x="670" y="270" as="targetPoint" />
          </mxGeometry>
        </mxCell>
        <mxCell id="XnYZWJbcaLXLvjj-krjO-15" value="" style="ellipse;whiteSpace=wrap;html=1;aspect=fixed;strokeWidth=2;" vertex="1" parent="1">
          <mxGeometry x="880" y="400" width="80" height="80" as="geometry" />
        </mxCell>
        <mxCell id="XnYZWJbcaLXLvjj-krjO-17" value="" style="endArrow=classic;html=1;rounded=0;curved=1;exitX=1;exitY=0.5;exitDx=0;exitDy=0;strokeWidth=2;entryX=0.007;entryY=0.635;entryDx=0;entryDy=0;entryPerimeter=0;" edge="1" parent="1" source="XnYZWJbcaLXLvjj-krjO-15" target="XnYZWJbcaLXLvjj-krjO-37">
          <mxGeometry width="50" height="50" relative="1" as="geometry">
            <mxPoint x="1000" y="290" as="sourcePoint" />
            <mxPoint x="1050" y="400" as="targetPoint" />
          </mxGeometry>
        </mxCell>
        <mxCell id="XnYZWJbcaLXLvjj-krjO-18" value="" style="endArrow=classic;html=1;rounded=0;curved=1;entryX=0;entryY=0.5;entryDx=0;entryDy=0;exitX=1;exitY=0.5;exitDx=0;exitDy=0;strokeWidth=2;" edge="1" parent="1" source="XnYZWJbcaLXLvjj-krjO-1" target="XnYZWJbcaLXLvjj-krjO-6">
          <mxGeometry width="50" height="50" relative="1" as="geometry">
            <mxPoint x="400" y="330" as="sourcePoint" />
            <mxPoint x="450" y="400" as="targetPoint" />
          </mxGeometry>
        </mxCell>
        <mxCell id="XnYZWJbcaLXLvjj-krjO-19" value="t*" style="rounded=0;whiteSpace=wrap;html=1;dashed=1;dashPattern=8 8;fontSize=30;strokeWidth=2;" vertex="1" parent="1">
          <mxGeometry x="1050" y="570" width="80" height="80" as="geometry" />
        </mxCell>
        <mxCell id="XnYZWJbcaLXLvjj-krjO-20" value="" style="endArrow=classic;html=1;rounded=0;curved=1;entryX=1;entryY=0.5;entryDx=0;entryDy=0;exitX=0;exitY=1;exitDx=0;exitDy=0;dashed=1;dashPattern=8 8;strokeWidth=2;" edge="1" parent="1" source="XnYZWJbcaLXLvjj-krjO-22" target="XnYZWJbcaLXLvjj-krjO-19">
          <mxGeometry width="50" height="50" relative="1" as="geometry">
            <mxPoint x="990" y="360" as="sourcePoint" />
            <mxPoint x="900" y="440" as="targetPoint" />
            <Array as="points">
              <mxPoint x="1630" y="590" />
            </Array>
          </mxGeometry>
        </mxCell>
        <mxCell id="XnYZWJbcaLXLvjj-krjO-21" value="" style="endArrow=classic;html=1;rounded=0;curved=1;entryX=0.839;entryY=0.977;entryDx=0;entryDy=0;exitX=0;exitY=0.5;exitDx=0;exitDy=0;dashed=1;dashPattern=8 8;entryPerimeter=0;strokeWidth=2;" edge="1" parent="1" source="XnYZWJbcaLXLvjj-krjO-19" target="XnYZWJbcaLXLvjj-krjO-1">
          <mxGeometry width="50" height="50" relative="1" as="geometry">
            <mxPoint x="670" y="344" as="sourcePoint" />
            <mxPoint x="350" y="504" as="targetPoint" />
            <Array as="points">
              <mxPoint x="260" y="570" />
            </Array>
          </mxGeometry>
        </mxCell>
        <mxCell id="XnYZWJbcaLXLvjj-krjO-22" value="" style="ellipse;whiteSpace=wrap;html=1;aspect=fixed;strokeWidth=2;" vertex="1" parent="1">
          <mxGeometry x="1780.48" y="211.68" width="80" height="80" as="geometry" />
        </mxCell>
        <mxCell id="XnYZWJbcaLXLvjj-krjO-23" value="ψ" style="rounded=0;whiteSpace=wrap;html=1;fontSize=40;strokeWidth=2;" vertex="1" parent="1">
          <mxGeometry x="1650" y="211.68" width="80" height="80" as="geometry" />
        </mxCell>
        <mxCell id="XnYZWJbcaLXLvjj-krjO-24" value="" style="endArrow=classic;html=1;rounded=0;curved=1;exitX=1;exitY=0.5;exitDx=0;exitDy=0;strokeWidth=2;entryX=0;entryY=0.5;entryDx=0;entryDy=0;" edge="1" parent="1" source="XnYZWJbcaLXLvjj-krjO-23" target="XnYZWJbcaLXLvjj-krjO-22">
          <mxGeometry width="50" height="50" relative="1" as="geometry">
            <mxPoint x="1810.48" y="301.68" as="sourcePoint" />
            <mxPoint x="1770" y="220" as="targetPoint" />
          </mxGeometry>
        </mxCell>
        <mxCell id="XnYZWJbcaLXLvjj-krjO-26" value="i" style="text;html=1;strokeColor=none;fillColor=none;align=center;verticalAlign=middle;whiteSpace=wrap;rounded=0;fontSize=30;" vertex="1" parent="1">
          <mxGeometry x="100" y="290" width="60" height="40" as="geometry" />
        </mxCell>
        <mxCell id="XnYZWJbcaLXLvjj-krjO-27" value="o" style="text;html=1;strokeColor=none;fillColor=none;align=center;verticalAlign=middle;whiteSpace=wrap;rounded=0;fontSize=30;" vertex="1" parent="1">
          <mxGeometry x="1790.48" y="291.68" width="60" height="40" as="geometry" />
        </mxCell>
        <mxCell id="XnYZWJbcaLXLvjj-krjO-28" value="s&lt;sub&gt;1&lt;/sub&gt;" style="text;html=1;strokeColor=none;fillColor=none;align=center;verticalAlign=middle;whiteSpace=wrap;rounded=0;fontSize=20;" vertex="1" parent="1">
          <mxGeometry x="340" y="290" width="60" height="40" as="geometry" />
        </mxCell>
        <mxCell id="XnYZWJbcaLXLvjj-krjO-29" value="&lt;div style=&quot;font-size: 20px;&quot;&gt;s&lt;sub&gt;2&lt;/sub&gt;&lt;/div&gt;" style="text;html=1;strokeColor=none;fillColor=none;align=center;verticalAlign=middle;whiteSpace=wrap;rounded=0;fontSize=20;" vertex="1" parent="1">
          <mxGeometry x="580" y="290" width="60" height="40" as="geometry" />
        </mxCell>
        <mxCell id="XnYZWJbcaLXLvjj-krjO-30" value="s&lt;sub&gt;4&lt;/sub&gt;" style="text;html=1;strokeColor=none;fillColor=none;align=center;verticalAlign=middle;whiteSpace=wrap;rounded=0;fontSize=20;" vertex="1" parent="1">
          <mxGeometry x="900" y="80" width="60" height="40" as="geometry" />
        </mxCell>
        <mxCell id="XnYZWJbcaLXLvjj-krjO-31" value="s&lt;sub&gt;7&lt;/sub&gt;" style="text;html=1;strokeColor=none;fillColor=none;align=center;verticalAlign=middle;whiteSpace=wrap;rounded=0;fontSize=20;" vertex="1" parent="1">
          <mxGeometry x="890" y="475" width="60" height="40" as="geometry" />
        </mxCell>
        <mxCell id="XnYZWJbcaLXLvjj-krjO-34" value="" style="ellipse;whiteSpace=wrap;html=1;aspect=fixed;strokeWidth=2;" vertex="1" parent="1">
          <mxGeometry x="840" y="211.68" width="80" height="80" as="geometry" />
        </mxCell>
        <mxCell id="XnYZWJbcaLXLvjj-krjO-35" value="s&lt;sub&gt;3&lt;/sub&gt;" style="text;html=1;strokeColor=none;fillColor=none;align=center;verticalAlign=middle;whiteSpace=wrap;rounded=0;fontSize=20;" vertex="1" parent="1">
          <mxGeometry x="850" y="293.36" width="60" height="40" as="geometry" />
        </mxCell>
        <mxCell id="XnYZWJbcaLXLvjj-krjO-36" value="D" style="rounded=0;whiteSpace=wrap;html=1;fontSize=44;strokeWidth=2;" vertex="1" parent="1">
          <mxGeometry x="1050" width="80" height="80" as="geometry" />
        </mxCell>
        <mxCell id="XnYZWJbcaLXLvjj-krjO-37" value="I" style="rounded=0;whiteSpace=wrap;html=1;fontSize=44;strokeWidth=2;" vertex="1" parent="1">
          <mxGeometry x="1040" y="390" width="80" height="80" as="geometry" />
        </mxCell>
        <mxCell id="XnYZWJbcaLXLvjj-krjO-38" value="" style="endArrow=classic;html=1;rounded=0;curved=1;strokeWidth=2;entryX=0;entryY=0.5;entryDx=0;entryDy=0;exitX=1;exitY=0.5;exitDx=0;exitDy=0;" edge="1" parent="1" source="XnYZWJbcaLXLvjj-krjO-2" target="XnYZWJbcaLXLvjj-krjO-36">
          <mxGeometry width="50" height="50" relative="1" as="geometry">
            <mxPoint x="1030" y="-20" as="sourcePoint" />
            <mxPoint x="1141" y="-9.589999999999975" as="targetPoint" />
          </mxGeometry>
        </mxCell>
        <mxCell id="XnYZWJbcaLXLvjj-krjO-40" value="" style="ellipse;whiteSpace=wrap;html=1;aspect=fixed;strokeWidth=2;" vertex="1" parent="1">
          <mxGeometry x="1530.48" y="211.68" width="80" height="80" as="geometry" />
        </mxCell>
        <mxCell id="XnYZWJbcaLXLvjj-krjO-41" value="s&lt;sub&gt;9&lt;/sub&gt;" style="text;html=1;strokeColor=none;fillColor=none;align=center;verticalAlign=middle;whiteSpace=wrap;rounded=0;fontSize=20;" vertex="1" parent="1">
          <mxGeometry x="1540.48" y="290" width="60" height="40" as="geometry" />
        </mxCell>
        <mxCell id="XnYZWJbcaLXLvjj-krjO-44" value="" style="endArrow=classic;html=1;rounded=0;curved=1;exitX=1;exitY=0.5;exitDx=0;exitDy=0;entryX=0;entryY=0.5;entryDx=0;entryDy=0;strokeWidth=2;" edge="1" parent="1" target="XnYZWJbcaLXLvjj-krjO-23">
          <mxGeometry width="50" height="50" relative="1" as="geometry">
            <mxPoint x="1610.48" y="251.18" as="sourcePoint" />
            <mxPoint x="1670.48" y="251.18" as="targetPoint" />
          </mxGeometry>
        </mxCell>
        <mxCell id="XnYZWJbcaLXLvjj-krjO-45" value="C" style="rounded=0;whiteSpace=wrap;html=1;fontSize=44;strokeWidth=2;" vertex="1" parent="1">
          <mxGeometry x="680" y="320" width="80" height="80" as="geometry" />
        </mxCell>
        <mxCell id="XnYZWJbcaLXLvjj-krjO-46" value="" style="endArrow=classic;html=1;rounded=0;curved=1;entryX=0;entryY=0.5;entryDx=0;entryDy=0;strokeWidth=2;exitX=1;exitY=1;exitDx=0;exitDy=0;" edge="1" parent="1" source="XnYZWJbcaLXLvjj-krjO-5" target="XnYZWJbcaLXLvjj-krjO-45">
          <mxGeometry width="50" height="50" relative="1" as="geometry">
            <mxPoint x="595" y="287" as="sourcePoint" />
            <mxPoint x="677" y="149" as="targetPoint" />
          </mxGeometry>
        </mxCell>
        <mxCell id="XnYZWJbcaLXLvjj-krjO-47" value="H" style="rounded=0;whiteSpace=wrap;html=1;fontSize=44;strokeWidth=2;" vertex="1" parent="1">
          <mxGeometry x="1410" y="210" width="80" height="80" as="geometry" />
        </mxCell>
        <mxCell id="XnYZWJbcaLXLvjj-krjO-48" value="" style="endArrow=classic;html=1;rounded=0;curved=1;exitX=1;exitY=0.5;exitDx=0;exitDy=0;strokeWidth=2;entryX=0;entryY=0.5;entryDx=0;entryDy=0;" edge="1" parent="1" target="XnYZWJbcaLXLvjj-krjO-15" source="XnYZWJbcaLXLvjj-krjO-45">
          <mxGeometry width="50" height="50" relative="1" as="geometry">
            <mxPoint x="770" y="408.5" as="sourcePoint" />
            <mxPoint x="910" y="410" as="targetPoint" />
          </mxGeometry>
        </mxCell>
        <mxCell id="XnYZWJbcaLXLvjj-krjO-50" value="" style="endArrow=classic;html=1;rounded=0;curved=1;exitX=1;exitY=0.5;exitDx=0;exitDy=0;entryX=0;entryY=0.5;entryDx=0;entryDy=0;strokeWidth=2;" edge="1" parent="1" source="XnYZWJbcaLXLvjj-krjO-34">
          <mxGeometry width="50" height="50" relative="1" as="geometry">
            <mxPoint x="1000" y="248.27999999999997" as="sourcePoint" />
            <mxPoint x="1040" y="248.27999999999997" as="targetPoint" />
          </mxGeometry>
        </mxCell>
        <mxCell id="XnYZWJbcaLXLvjj-krjO-51" value="" style="endArrow=classic;html=1;rounded=0;curved=1;entryX=0;entryY=0;entryDx=0;entryDy=0;strokeWidth=2;exitX=1;exitY=0.75;exitDx=0;exitDy=0;" edge="1" parent="1" source="XnYZWJbcaLXLvjj-krjO-8" target="XnYZWJbcaLXLvjj-krjO-34">
          <mxGeometry width="50" height="50" relative="1" as="geometry">
            <mxPoint x="790" y="130" as="sourcePoint" />
            <mxPoint x="930" y="120" as="targetPoint" />
          </mxGeometry>
        </mxCell>
        <mxCell id="XnYZWJbcaLXLvjj-krjO-52" value="" style="endArrow=classic;html=1;rounded=0;curved=1;entryX=0;entryY=1;entryDx=0;entryDy=0;strokeWidth=2;exitX=1;exitY=0.25;exitDx=0;exitDy=0;" edge="1" parent="1" source="XnYZWJbcaLXLvjj-krjO-45" target="XnYZWJbcaLXLvjj-krjO-34">
          <mxGeometry width="50" height="50" relative="1" as="geometry">
            <mxPoint x="780" y="140" as="sourcePoint" />
            <mxPoint x="860" y="220" as="targetPoint" />
          </mxGeometry>
        </mxCell>
        <mxCell id="XnYZWJbcaLXLvjj-krjO-56" value="" style="endArrow=classic;html=1;rounded=0;curved=1;exitX=1;exitY=0.5;exitDx=0;exitDy=0;entryX=0;entryY=0.5;entryDx=0;entryDy=0;strokeWidth=2;" edge="1" parent="1">
          <mxGeometry width="50" height="50" relative="1" as="geometry">
            <mxPoint x="1120" y="247.82" as="sourcePoint" />
            <mxPoint x="1160" y="247.82" as="targetPoint" />
          </mxGeometry>
        </mxCell>
        <mxCell id="XnYZWJbcaLXLvjj-krjO-60" value="" style="endArrow=classic;html=1;rounded=0;curved=1;exitX=1;exitY=0.5;exitDx=0;exitDy=0;entryX=0;entryY=0.5;entryDx=0;entryDy=0;strokeWidth=2;" edge="1" parent="1">
          <mxGeometry width="50" height="50" relative="1" as="geometry">
            <mxPoint x="1490" y="251.33999999999997" as="sourcePoint" />
            <mxPoint x="1530" y="251.33999999999997" as="targetPoint" />
          </mxGeometry>
        </mxCell>
        <mxCell id="XnYZWJbcaLXLvjj-krjO-62" value="s&lt;sub&gt;5&lt;/sub&gt;" style="text;html=1;strokeColor=none;fillColor=none;align=center;verticalAlign=middle;whiteSpace=wrap;rounded=0;fontSize=20;" vertex="1" parent="1">
          <mxGeometry x="1200" y="80" width="60" height="40" as="geometry" />
        </mxCell>
        <mxCell id="XnYZWJbcaLXLvjj-krjO-65" value="" style="ellipse;whiteSpace=wrap;html=1;aspect=fixed;fillColor=#000000;" vertex="1" parent="1">
          <mxGeometry x="125" y="245" width="10" height="10" as="geometry" />
        </mxCell>
        <mxCell id="XnYZWJbcaLXLvjj-krjO-66" value="" style="ellipse;whiteSpace=wrap;html=1;aspect=fixed;" vertex="1" parent="1">
          <mxGeometry x="1190" width="80" height="80" as="geometry" />
        </mxCell>
        <mxCell id="XnYZWJbcaLXLvjj-krjO-67" value="" style="ellipse;whiteSpace=wrap;html=1;aspect=fixed;" vertex="1" parent="1">
          <mxGeometry x="1200" y="400" width="80" height="80" as="geometry" />
        </mxCell>
        <mxCell id="XnYZWJbcaLXLvjj-krjO-68" value="s&lt;sub&gt;1&lt;/sub&gt;" style="text;html=1;strokeColor=none;fillColor=none;align=center;verticalAlign=middle;whiteSpace=wrap;rounded=0;fontSize=20;" vertex="1" parent="1">
          <mxGeometry x="1210" y="490" width="60" height="40" as="geometry" />
        </mxCell>
      </root>
    </mxGraphModel>
  </diagram>
</mxfile>
